<?xml version="1.0" encoding="utf-8"?>
<!-- Svg Vector Icons : http://www.onlinewebfonts.com/icon -->
<!DOCTYPE svg PUBLIC "-//W3C//DTD SVG 1.1//EN" "http://www.w3.org/Graphics/SVG/1.1/DTD/svg11.dtd">
<svg version="1.1" xmlns="http://www.w3.org/2000/svg" xmlns:xlink="http://www.w3.org/1999/xlink" x="0px" y="0px" viewBox="0 0 256 256" enable-background="new 0 0 256 256" xml:space="preserve">
<metadata> Svg Vector Icons : http://www.onlinewebfonts.com/icon </metadata>
<g><g><g><path fill="#000000" d="M128,12.9c32.5,0,60.3,11.6,83.3,34.7c23.1,23.1,34.7,50.9,34.7,83.3c0,25.7-7.5,48.9-22.5,69.3c-15,20.4-34.3,34.7-58.1,42.6c-2.8,0.5-4.9,0.1-6.2-1.1c-1.3-1.2-2-2.7-2-4.6c0-0.3,0-4.2,0.1-11.7c0.1-7.5,0.1-14.4,0.1-20.6c0-9.8-2.7-17.2-8.2-22c5.9-0.6,11.2-1.5,15.9-2.7s9.5-3.2,14.4-6c4.9-2.8,9-6.2,12.3-10.3c3.3-4.1,6-9.4,8.1-16c2.1-6.6,3.2-14.3,3.2-23.1c0-12.3-4-23-11.9-31.8c3.8-9.1,3.3-19.4-1.2-31.1c-3-0.9-7.2-0.4-12.6,1.6c-5.5,2-10.1,4.3-14,6.8l-5.8,3.8c-9.7-2.6-19.5-4-29.5-4s-19.8,1.3-29.5,4c-1.7-1.1-3.9-2.5-6.6-4.2s-6.9-3.7-12.8-6c-5.9-2.3-10.3-2.9-13.2-2C61.4,73.6,61.1,84,64.8,93c-8.1,9.1-12.2,19.7-12.2,31.8c0,8.7,1.1,16.4,3.2,23.1c2.1,6.6,4.8,12,8.1,16c3.3,4.1,7.4,7.5,12.4,10.3c5,2.8,9.8,4.8,14.4,6.1c4.6,1.3,9.9,2.2,15.8,2.8c-3.9,3.3-6.4,8.5-7.5,15.7c-3.3,1.4-6.5,2.4-9.8,3c-3.3,0.6-7.4,0-12.3-1.8c-4.9-1.8-9-5.5-12.3-11.1c-1.9-3.3-4.3-5.9-7.4-8c-3-2-5.6-3.3-7.6-3.8l-3-0.5c-2.2,0-3.7,0.2-4.5,0.7c-0.8,0.5-1,1.1-0.7,1.9c0.3,0.8,0.8,1.5,1.4,2.2c0.6,0.7,1.3,1.3,1.9,1.8l1.2,0.7c2.3,1.1,4.6,3.1,6.8,6s3.8,5.5,4.7,7.9l1.6,3.5c1.3,4.2,3.5,7.7,6.7,10.3c3.2,2.6,6.6,4.4,10.3,5.2c3.7,0.8,7.2,1.2,10.6,1.3c3.4,0.1,6.3-0.1,8.7-0.6l3.3-0.5c0.1,6.6,0.2,13.3,0.2,20.1c0,1.9-0.7,3.4-2,4.6c-1.3,1.2-3.3,1.5-6,1.1c-23.9-7.8-43.3-22-58.3-42.5c-15-20.5-22.5-43.7-22.5-69.4c0-32.5,11.6-60.3,34.7-83.3C67.7,24.5,95.5,12.9,128,12.9z"/></g></g></g>
</svg>