<svg width="184" height="48" viewBox="0 0 184 48" fill="none" xmlns="http://www.w3.org/2000/svg">
<path d="M29.4394 1.0276C27.0238 0.631437 24.59 0.357171 22.146 0.212928C20.9372 0.141822 19.7284 0.10119 18.5175 0.0910322C17.4367 0.0829058 16.3518 0.0890006 15.2792 0.221054C14.2288 0.349045 13.1968 0.590805 12.2419 1.05198C11.3094 1.50299 10.5029 2.17545 9.80807 2.9373C9.11529 3.69712 8.52004 4.54226 7.94103 5.39147C7.32749 6.29147 6.73832 7.20772 6.17964 8.14022C3.94488 11.8702 2.12863 15.9416 1.36678 20.2424C0.990936 22.3695 0.871071 24.5433 1.09861 26.6928C1.32005 28.8077 1.86452 30.8718 2.66904 32.8384C3.48574 34.8334 4.5442 36.7228 5.78144 38.4882C6.98212 40.2029 8.3311 41.8363 9.89543 43.232C11.5248 44.6846 13.3776 45.8162 15.4234 46.578C17.4591 47.3358 19.6227 47.7462 21.7843 47.9169C25.9755 48.246 30.2277 47.5857 34.171 46.1514C36.164 45.4261 38.0879 44.5058 39.9042 43.4067C41.6777 42.332 43.3924 41.0988 44.8552 39.6219C46.326 38.1388 47.4779 36.3936 48.189 34.4271C48.8818 32.5133 49.1581 30.4492 49.0829 28.4196C48.9285 24.2061 47.2281 20.2181 44.8328 16.7989C42.4579 13.4061 39.4308 10.2714 35.843 8.16257C32.1902 6.01517 27.7085 5.01156 23.564 6.21427C19.7852 7.3093 16.9512 10.2307 15.0415 13.5686C14.0277 15.3402 13.2252 17.2499 12.634 19.2002C11.9819 21.3517 11.6081 23.6413 11.8844 25.8883C12.1464 28.0194 13.0017 30.0022 14.178 31.786C15.2974 33.4864 16.6546 35.0792 18.1539 36.4566C19.6146 37.7975 21.313 38.9575 23.2471 39.4756C25.4818 40.0769 27.7674 39.628 29.9392 38.99C33.5229 37.9356 37.1838 36.5277 40.0139 34.0126C41.4522 32.7347 42.5838 31.1704 43.305 29.3846C44.0405 27.5603 44.4306 25.5774 44.5585 23.619C44.8023 19.895 44.0263 16.0899 42.2832 12.7865C40.5583 9.51764 37.8604 6.82781 34.5103 5.24113C31.2313 3.68899 27.4769 3.14249 23.9013 3.80479C22.1155 4.13594 20.3846 4.78402 18.8365 5.73481C17.2112 6.73436 15.783 8.03458 14.5783 9.50952C12.12 12.5224 10.5008 16.2057 9.53787 19.954C8.56879 23.7307 8.27015 27.798 9.25141 31.6052C10.2327 35.4144 12.6157 38.732 16.0532 40.6884C17.839 41.7063 19.8279 42.3076 21.8737 42.4823C24.0028 42.6652 26.1584 42.3787 28.2123 41.8099C32.2979 40.6783 36.1152 38.4943 39.4999 35.9751C42.6976 33.5921 45.5764 30.7092 47.5897 27.2433C49.5827 23.814 50.629 19.8097 50.3202 15.8379C50.1678 13.8734 49.6843 11.9413 48.8269 10.1657C48.0123 8.47544 46.8441 6.96189 45.4545 5.7023C42.6549 3.16687 39.0549 1.64724 35.4062 0.810218C31.7026 -0.03899 27.7674 -0.309193 24.0211 0.430309C22.1785 0.793965 20.3744 1.42782 18.7634 2.39893C17.071 3.42082 15.6591 4.81246 14.5518 6.44587C13.339 8.23571 12.4512 10.2693 11.7909 12.3233C11.1002 14.4727 10.7264 16.7826 11.1957 19.0194C11.6121 21.0063 12.6807 22.7799 13.9688 24.3239C15.2832 25.9004 16.8354 27.2962 18.4403 28.5679C20.1144 29.8946 21.9144 31.0627 23.8972 31.8733C26.006 32.7368 28.2651 33.0639 30.5283 33.1736C32.8159 33.2853 35.1543 33.3036 37.4154 32.8871C39.443 32.5133 41.3405 31.7007 42.982 30.4472C46.3463 27.8792 48.3454 24.0293 49.5319 20.0434C50.1658 17.9163 50.6676 15.7079 50.9296 13.5016C51.1775 11.4213 51.08 9.22306 50.0174 7.36212C48.2053 4.19283 44.3594 2.94949 40.9931 2.275C36.4281 1.35875 31.7554 0.962588 27.1031 1.07839C26.711 1.08855 26.711 1.69803 27.1031 1.68787C31.7717 1.57207 36.4708 1.95807 41.0459 2.90683C44.2843 3.57929 48.0326 4.79621 49.6457 7.95535C50.5985 9.82035 50.5457 12.0165 50.249 14.0379C49.9342 16.1732 49.4425 18.3084 48.7965 20.3664C47.6039 24.1573 45.5967 27.8548 42.2953 30.2013C40.6132 31.3959 38.6994 32.0948 36.6638 32.3955C34.4757 32.7185 32.2064 32.6718 30.0062 32.5336C27.7938 32.3934 25.6098 31.9932 23.5803 31.077C21.7031 30.2298 19.9864 29.0575 18.3997 27.7512C15.4417 25.3194 12.2765 22.2883 11.6893 18.3124C11.3643 16.1 11.8823 13.8429 12.6239 11.7666C13.3166 9.82645 14.2024 7.92284 15.4275 6.25896C16.5591 4.72104 18.0137 3.46755 19.6959 2.56755C21.2927 1.71428 23.05 1.19013 24.8317 0.897576C28.4724 0.302318 32.2857 0.645658 35.8491 1.53956C39.3475 2.41721 42.7911 3.9531 45.4078 6.49056C46.7283 7.77047 47.7989 9.28807 48.5323 10.9763C49.2901 12.7215 49.6761 14.621 49.7493 16.5165C49.8976 20.3928 48.7599 24.2061 46.7283 27.4912C44.6906 30.7844 41.8525 33.5271 38.7258 35.7862C35.4042 38.1875 31.6945 40.276 27.7044 41.3121C25.6769 41.8383 23.5681 42.0659 21.4796 41.8302C19.5313 41.6108 17.648 40.9546 15.978 39.9327C14.3528 38.9392 12.9388 37.6024 11.8722 36.0239C10.8259 34.4738 10.1169 32.7266 9.70852 30.9063C8.8776 27.2007 9.25344 23.2797 10.2469 19.6452C11.2322 16.0452 12.825 12.4939 15.2568 9.63548C16.4636 8.21742 17.8816 6.97408 19.4988 6.04361C21.0062 5.17612 22.6701 4.61134 24.3848 4.33098C27.8365 3.76619 31.4832 4.38177 34.5976 5.95829C37.7994 7.57747 40.3206 10.2307 41.9256 13.4264C43.5488 16.6607 44.2152 20.3562 43.9186 23.9562C43.7601 25.8801 43.3396 27.8508 42.5432 29.6142C41.7976 31.2659 40.6518 32.6819 39.2683 33.844C36.4423 36.2169 32.8139 37.5496 29.3033 38.5309C27.1843 39.1241 24.9983 39.439 22.8692 38.7198C21.0428 38.1022 19.4663 36.9015 18.1031 35.5668C15.2324 32.7571 12.6239 29.153 12.4166 25.0086C12.3069 22.7941 12.7803 20.5959 13.4934 18.5095C14.1171 16.6831 14.9155 14.9075 15.9272 13.2619C16.8862 11.6996 18.0523 10.2571 19.4643 9.08085C20.9433 7.85173 22.6884 6.98627 24.5697 6.58402C28.6572 5.7084 32.885 6.94361 36.3285 9.17431C38.0351 10.2815 39.5791 11.6244 40.987 13.0892C42.399 14.558 43.6971 16.1467 44.8145 17.8513C47.0371 21.242 48.5323 25.1589 48.4836 29.2566C48.4592 31.2314 48.0874 33.2244 47.291 35.0365C46.4804 36.8873 45.233 38.4781 43.7439 39.8352C42.2446 41.2024 40.54 42.3544 38.7766 43.3539C37.001 44.3595 35.1299 45.1966 33.1938 45.8426C29.3277 47.1327 25.2035 47.6629 21.1424 47.2444C19.0132 47.025 16.8841 46.5516 14.9074 45.7187C12.9814 44.906 11.2627 43.7155 9.75728 42.2711C8.28031 40.851 6.99431 39.2298 5.86067 37.5252C4.71485 35.8025 3.72953 33.9618 3.00019 32.0237C2.27084 30.0855 1.79139 28.0539 1.64511 25.9858C1.4968 23.8993 1.66136 21.8007 2.07784 19.7528C2.92298 15.586 4.73314 11.6691 6.93945 8.05693C7.48392 7.16709 8.05277 6.2935 8.64396 5.43617C9.21891 4.60321 9.8162 3.78041 10.5273 3.05716C11.2302 2.34204 12.0469 1.74678 12.9855 1.3811C13.9383 1.00728 14.9541 0.834597 15.9699 0.755365C18.1132 0.590805 20.2992 0.696448 22.4426 0.832565C24.7322 0.97884 27.0137 1.23685 29.2769 1.60864C29.6608 1.67771 29.8254 1.09058 29.4394 1.0276Z" fill="#00FB88"/>
<path d="M28.1157 36.3047C26.592 36.3047 25.1598 36.0305 23.8189 35.4819C22.4984 34.9131 21.3302 34.1208 20.3144 33.105C19.3189 32.0892 18.5368 30.921 17.9679 29.6005C17.4194 28.2596 17.1451 26.8172 17.1451 25.2732C17.1451 23.7088 17.4295 22.2664 17.9984 20.9459C18.5672 19.605 19.3596 18.4368 20.3754 17.4414C21.3912 16.4256 22.5796 15.6434 23.9408 15.0949C25.302 14.526 26.7749 14.2416 28.3595 14.2416C30.127 14.2416 31.7523 14.5768 33.2354 15.2472C34.7184 15.8973 35.9476 16.8217 36.9227 18.0204L34.1191 20.824C33.4487 19.9504 32.6157 19.28 31.6202 18.8127C30.6248 18.3454 29.5277 18.1118 28.3291 18.1118C26.9679 18.1118 25.7591 18.4165 24.7027 19.026C23.6665 19.6152 22.8539 20.4481 22.2647 21.5249C21.6756 22.5813 21.381 23.8206 21.381 25.2427C21.381 26.6648 21.6654 27.9244 22.2343 29.0215C22.8234 30.0982 23.6158 30.9413 24.6112 31.5508C25.627 32.1603 26.785 32.465 28.0853 32.465C29.4261 32.465 30.574 32.2212 31.5288 31.7336C32.4837 31.2257 33.2151 30.4944 33.723 29.5395C34.2309 28.5644 34.4848 27.3759 34.4848 25.9741L37.197 27.833L27.8415 27.7416V24.1456H38.7512V24.7246C38.7512 27.2844 38.294 29.4278 37.3798 31.1546C36.4656 32.8612 35.206 34.1512 33.6011 35.0248C32.0164 35.8781 30.188 36.3047 28.1157 36.3047ZM40.8941 36V21.2811H44.8862V36H40.8941ZM44.8862 27.8635L43.332 26.8273C43.5149 25.0192 44.0431 23.5971 44.9167 22.561C45.7902 21.5046 47.0498 20.9763 48.6954 20.9763C49.4065 20.9763 50.0464 21.0982 50.6153 21.342C51.1841 21.5655 51.7022 21.9413 52.1695 22.4696L49.6706 25.3341C49.4471 25.0903 49.1729 24.9075 48.8478 24.7856C48.5431 24.6637 48.1875 24.6027 47.7812 24.6027C46.9279 24.6027 46.227 24.877 45.6785 25.4255C45.1503 25.9538 44.8862 26.7664 44.8862 27.8635ZM59.4632 36.3047C57.9801 36.3047 56.6393 35.9695 55.4407 35.2991C54.2623 34.6084 53.3176 33.684 52.6066 32.526C51.9158 31.3476 51.5705 30.0373 51.5705 28.5948C51.5705 27.1524 51.9158 25.8623 52.6066 24.7246C53.2973 23.5666 54.242 22.6524 55.4407 21.982C56.6393 21.2912 57.97 20.9459 59.4327 20.9459C60.9361 20.9459 62.277 21.2912 63.4553 21.982C64.6539 22.6524 65.5986 23.5666 66.2894 24.7246C66.9801 25.8623 67.3255 27.1524 67.3255 28.5948C67.3255 30.0373 66.9801 31.3476 66.2894 32.526C65.5986 33.684 64.6539 34.6084 63.4553 35.2991C62.277 35.9695 60.9463 36.3047 59.4632 36.3047ZM59.4327 32.5869C60.1844 32.5869 60.8447 32.4244 61.4135 32.0993C62.0027 31.754 62.4497 31.2867 62.7544 30.6975C63.0795 30.0881 63.242 29.3973 63.242 28.6253C63.242 27.8533 63.0795 27.1727 62.7544 26.5835C62.4293 25.9944 61.9824 25.5373 61.4135 25.2122C60.8447 24.8668 60.1844 24.6942 59.4327 24.6942C58.7014 24.6942 58.0513 24.8668 57.4824 25.2122C56.9136 25.5373 56.4666 25.9944 56.1416 26.5835C55.8165 27.1727 55.654 27.8533 55.654 28.6253C55.654 29.3973 55.8165 30.0881 56.1416 30.6975C56.4666 31.2867 56.9136 31.754 57.4824 32.0993C58.0513 32.4244 58.7014 32.5869 59.4327 32.5869ZM75.5637 36.3047C74.2635 36.3047 73.1055 36.0305 72.0897 35.4819C71.0942 34.9334 70.312 34.1716 69.7432 33.1964C69.1743 32.2212 68.8899 31.0937 68.8899 29.8138V21.2811H72.9125V29.7224C72.9125 30.3318 73.014 30.8601 73.2172 31.307C73.4204 31.7336 73.7251 32.0587 74.1314 32.2822C74.5377 32.5057 75.0152 32.6174 75.5637 32.6174C76.3967 32.6174 77.0468 32.3634 77.514 31.8555C77.9813 31.3476 78.2149 30.6366 78.2149 29.7224V21.2811H82.207V29.8138C82.207 31.114 81.9226 32.2517 81.3538 33.2269C80.8052 34.202 80.0231 34.9639 79.0073 35.5124C78.0118 36.0406 76.8639 36.3047 75.5637 36.3047ZM94.6806 36V27.5587C94.6806 26.6851 94.4064 25.9741 93.8578 25.4255C93.3093 24.877 92.5983 24.6027 91.7247 24.6027C91.1558 24.6027 90.6479 24.7246 90.201 24.9684C89.754 25.2122 89.3985 25.5576 89.1344 26.0045C88.8906 26.4515 88.7687 26.9695 88.7687 27.5587L87.2145 26.7664C87.2145 25.6084 87.4583 24.6027 87.9459 23.7495C88.4538 22.8759 89.1445 22.1953 90.0181 21.7077C90.912 21.2201 91.9177 20.9763 93.035 20.9763C94.1118 20.9763 95.0768 21.2506 95.9301 21.7991C96.7833 22.3273 97.4538 23.0282 97.9414 23.9018C98.4289 24.7551 98.6727 25.6795 98.6727 26.675V36H94.6806ZM84.7766 36V21.2811H88.7687V36H84.7766ZM107.496 36.3047C106.134 36.3047 104.916 35.9695 103.839 35.2991C102.762 34.6287 101.909 33.7145 101.279 32.5564C100.669 31.3984 100.365 30.0982 100.365 28.6558C100.365 27.193 100.669 25.8826 101.279 24.7246C101.909 23.5666 102.752 22.6524 103.808 21.982C104.885 21.3115 106.114 20.9763 107.496 20.9763C108.552 20.9763 109.497 21.1897 110.33 21.6163C111.183 22.0429 111.864 22.6422 112.371 23.4143C112.9 24.1659 113.184 25.0192 113.225 25.9741V31.2156C113.184 32.1704 112.91 33.0339 112.402 33.8059C111.894 34.5779 111.213 35.1874 110.36 35.6343C109.507 36.0813 108.552 36.3047 107.496 36.3047ZM108.166 32.6174C108.918 32.6174 109.568 32.4549 110.116 32.1298C110.685 31.7844 111.122 31.3172 111.427 30.728C111.752 30.1185 111.914 29.4176 111.914 28.6253C111.914 27.8533 111.752 27.1727 111.427 26.5835C111.122 25.9741 110.685 25.5068 110.116 25.1817C109.568 24.8364 108.928 24.6637 108.197 24.6637C107.445 24.6637 106.785 24.8364 106.216 25.1817C105.667 25.5271 105.23 25.9944 104.905 26.5835C104.601 27.1727 104.448 27.8533 104.448 28.6253C104.448 29.4176 104.601 30.1185 104.905 30.728C105.23 31.3172 105.677 31.7844 106.246 32.1298C106.815 32.4549 107.455 32.6174 108.166 32.6174ZM115.663 36H111.701V32.0384L112.341 28.4425L111.671 24.9075V13.9673H115.663V36ZM125.533 36.3047C124.03 36.3047 122.679 35.9695 121.48 35.2991C120.281 34.6287 119.337 33.7145 118.646 32.5564C117.955 31.3984 117.61 30.0982 117.61 28.6558C117.61 27.193 117.955 25.8826 118.646 24.7246C119.337 23.5666 120.281 22.6524 121.48 21.982C122.699 21.2912 124.05 20.9459 125.533 20.9459C126.691 20.9459 127.758 21.1592 128.733 21.5858C129.708 22.0125 130.551 22.6219 131.262 23.4143L128.702 26.0045C128.316 25.5779 127.849 25.2528 127.3 25.0294C126.772 24.8059 126.183 24.6942 125.533 24.6942C124.802 24.6942 124.141 24.8668 123.552 25.2122C122.983 25.5373 122.526 25.9944 122.181 26.5835C121.856 27.1524 121.693 27.833 121.693 28.6253C121.693 29.3973 121.856 30.0881 122.181 30.6975C122.526 31.2867 122.983 31.754 123.552 32.0993C124.141 32.4244 124.802 32.5869 125.533 32.5869C126.203 32.5869 126.803 32.4752 127.331 32.2517C127.879 32.0079 128.347 31.6625 128.733 31.2156L131.323 33.8059C130.571 34.6185 129.708 35.2382 128.733 35.6648C127.758 36.0914 126.691 36.3047 125.533 36.3047ZM132.974 36V21.2811H136.966V36H132.974ZM136.966 27.8635L135.412 26.8273C135.595 25.0192 136.123 23.5971 136.997 22.561C137.87 21.5046 139.13 20.9763 140.776 20.9763C141.487 20.9763 142.127 21.0982 142.695 21.342C143.264 21.5655 143.782 21.9413 144.25 22.4696L141.751 25.3341C141.527 25.0903 141.253 24.9075 140.928 24.7856C140.623 24.6637 140.268 24.6027 139.861 24.6027C139.008 24.6027 138.307 24.877 137.759 25.4255C137.23 25.9538 136.966 26.7664 136.966 27.8635ZM150.782 36.3047C149.441 36.3047 148.232 35.9695 147.155 35.2991C146.078 34.6287 145.235 33.7145 144.626 32.5564C144.016 31.3984 143.712 30.0982 143.712 28.6558C143.712 27.193 144.016 25.8826 144.626 24.7246C145.235 23.5666 146.078 22.6524 147.155 21.982C148.232 21.3115 149.441 20.9763 150.782 20.9763C151.838 20.9763 152.783 21.1897 153.616 21.6163C154.449 22.0429 155.109 22.6422 155.596 23.4143C156.104 24.1659 156.379 25.0192 156.419 25.9741V31.2765C156.379 32.2517 156.104 33.1151 155.596 33.8668C155.109 34.6185 154.449 35.2178 153.616 35.6648C152.783 36.0914 151.838 36.3047 150.782 36.3047ZM151.513 32.6174C152.63 32.6174 153.534 32.2517 154.225 31.5203C154.916 30.7686 155.261 29.8036 155.261 28.6253C155.261 27.8533 155.099 27.1727 154.774 26.5835C154.469 25.9741 154.032 25.5068 153.463 25.1817C152.915 24.8364 152.265 24.6637 151.513 24.6637C150.782 24.6637 150.131 24.8364 149.563 25.1817C149.014 25.5068 148.577 25.9741 148.252 26.5835C147.947 27.1727 147.795 27.8533 147.795 28.6253C147.795 29.4176 147.947 30.1185 148.252 30.728C148.577 31.3172 149.014 31.7844 149.563 32.1298C150.131 32.4549 150.782 32.6174 151.513 32.6174ZM155.048 36V32.0384L155.688 28.4425L155.048 24.9075V21.2811H159.01V36H155.048ZM163.882 36V19.6964C163.882 18.5181 164.136 17.482 164.644 16.5881C165.152 15.6739 165.873 14.9526 166.808 14.4244C167.742 13.8962 168.839 13.6321 170.099 13.6321C171.054 13.6321 171.876 13.7946 172.567 14.1197C173.258 14.4447 173.877 14.8917 174.426 15.4605L171.897 18.0204C171.673 17.7969 171.429 17.6242 171.165 17.5023C170.901 17.3804 170.566 17.3195 170.16 17.3195C169.428 17.3195 168.859 17.5226 168.453 17.9289C168.067 18.3149 167.874 18.8736 167.874 19.605V36H163.882ZM160.469 24.7856V21.2811H172.232V24.7856H160.469ZM175.39 36V15.1558H179.382V36H175.39ZM171.946 24.7856V21.2811H182.825V24.7856H171.946Z" fill="#FCFCFC"/>
</svg>
